<?xml version="1.0" encoding="UTF-8"?>
<svg id="Capa_1" data-name="Capa 1" xmlns="http://www.w3.org/2000/svg" version="1.1" viewBox="0 0 16 16.3">
  <defs>
    <style>
      .cls-1 {
        fill: #000;
      }

      .cls-1, .cls-2 {
        stroke-width: 0px;
      }

      .cls-2 {
        fill: #f9a028;
      }

      .cls-3 {
        opacity: .8;
      }
    </style>
  </defs>
  <g>
    <path class="cls-1" d="M5.2,9.3s0,0,0,0c0,0,0,0,0,0h.9c0,0,0,0,.1,0,0,0,0,0,0,0h0c0,0,0,0,0,0,0,0,0,0,0,0,0,0,0,0,0,0h-.9s0,0,0,0c0,0,0,0,0,0,0,0,0,0,0,0s0,0,0,0Z"/>
    <path class="cls-1" d="M5.2,8.9s0,0,0,0c0,0,0,0,0,0,0,0,0,0,0,0s0,0,0,0c0,0,0,0,0,0h.5s0,0,0,0,0,0,0,0,0,0,0,0,0,0,0,0h-.5s0,0,0,0Z"/>
    <path class="cls-1" d="M10.6,9.4c-.3,0-.5-.2-.5-.5s.2-.5.5-.5.5.2.5.5-.2.5-.5.5Z"/>
    <path class="cls-1" d="M7.6,7.3c0,0,0-.1,0-.2h0c0,0,0,0,0,0h0s0,0,0,0c0,0,0,0,0,0,0,0,0,0,0,0,0,0,0,0,0,0,0,0,0,0,0,0h0s0,0,0,0t0,0s0,0,0,0h0s0,0,0,0h0s0,0,0,0c0,0,0,0,0,0,0,0,0,0,0,0,0,0,0,0,0,0h0s0,0,0,0h0c0,0,.1,0,.2,0,0,0,0,0,0,0,0,0,0,0,0,0s0,0,0,0c0,0,0,0,0,0h0s0,0,0,0,0,0,0,0,0,0,0,0c0,0,0,0,0,0,0,0,0,.1,0,.2s0,.2,0,.2c0,0,0,0,0,0,0,0,0,0,0,0s0,0,0,0,0,0,0,0c0,0-.2.2-.4.2s-.3,0-.4-.2c0,0,0,0,0,0s0,0,0,0c0,0,0,0,0,0,0,0,0,0,0,0Z"/>
    <path class="cls-1" d="M7.1,7h0c0,.6.4,1,1,1s.5-.1.7-.3c0,0,0-.1.1-.2,0,0,0,0,0,0,0,0,0,0,0,0s0,0,0,0c0,0,0,0,0,0,0,0,0,0,0,0,0,0,0,0,0,0,0,0,0,0,0,0h0q0,0,0,0h0v-.2h0s0,0,0,0h0c0,0,0-.1,0-.1,0,0,0,0,0,0,0,0,0,0,0,0,0,0,0,0,0,0,0,0,0,0,0,0,0,0,0,0,0,0,0,0,0,0,0,0,0,0,0-.1-.1-.2-.2-.2-.4-.3-.7-.3s-.1,0-.2,0h0s0,0,0,0c0,0,0,0,0,0s0,0,0,0h0s0,0,0,0h0s0,0,0,0c0,0,0,0,0,0,0,0,0,0,0,0,0,0,0,0,0,0,0,0,0,0,0,0,0,0,0,0,0,0h0c0,0,0,0,0,0h0c0,0,0,0,0,0s0,0,0,0c0,0,0,0,0,0,0,0,0,0,0,0,0,0,0,0,0,0,0,0,0,0,0,0,0,0,0,0,0,0t0,0s0,0,0,0,0,0,0,0h0c0,0,0,.1,0,.1h0ZM6.6,7.3s0,0,0,0h0c0,0,0,0,0,0h0c0-.1,0-.1,0-.1h0c0-.1,0-.1,0-.2h0c0,0,0,0,0-.1h0s0,0,0,0c0,0,0,0,0,0,0,0,0,0,0-.1,0,0,0,0,0,0,0,0,0,0,0,0,0,0,0,0,0,0h0c0,0,0-.1,0-.1,0,0,0,0,0,0h0c0,0,0,0,0,0s0,0,0,0c0,0,0,0,0,0,.1-.2.2-.3.4-.4,0,0,0,0,0,0,0,0,0,0,0,0,0,0,0,0,.1,0,0,0,0,0,0,0,0,0,0,0,0,0,0,0,0,0,0,0,0,0,0,0,0,0h0s0,0,0,0c0,0,0,0,0,0,0,0,0,0,0,0,0,0,0,0,.1,0,0,0,0,0,0,0,0,0,0,0,0,0s0,0,0,0c0,0,0,0,0,0,0,0,0,0,0,0h0c0,0,0,0,0,0h0s0,0,0,0,0,0,0,0,0,0,0,0c0,0,0,0,0,0,0,0,0,0,.1,0,0,0,0,0,.1,0,0,0,0,0,.1,0,0,0,0,0,.1,0,0,0,.1,0,.2,0,0,0,0,0,0,0,0,0,0,0,0,0,0,0,0,0,0,0,0,0,0,0,0,0,0,0,0,0,0,0,0,0,0,0,0,0,0,0,0,0,0,0h0c0,0,0,0,0,.1,0,0,0,0,0,0,0,0,0,0,0,0,0,0,0,0,0,0,0,0,0,0,0,0,0,0,0,0,0,0,0,0,0,0,0,0,0,0,0,0,0,0,0,0,0,0,0,0h0s0,0,0,0c0,0,0,0,0,0,0,0,0,0,0,0s0,0,0,0c0,0,0,0,0,0,0,0,0,0,0,0,0,0,0,0,0,0s0,0,0,0c0,0,0,0,0,0t0,0h0s0,0,0,0h0s0,0,0,0c0,0,0,0,0,.1h0c0,0,0,.1,0,.1h0v.2s0,0,0,.1h0c0,0,0,0,0,.1,0,0,0,0,0,0,0,0,0,0,0,.1h0c0,0,0,.1,0,.1,0,0,0,0,0,0,0,0,0,.1-.1.2,0,0,0,0,0,0,0,0,0,0,0,0s0,0,0,0c0,0,0,0,0,0,0,0,0,0,0,0s0,0,0,0c0,0,0,0,0,0h0s0,0,0,0c0,0,0,0,0,0,0,0,0,0-.1,0,0,0,0,0,0,0-.1,0-.2.1-.3.1,0,0,0,0,0,0,0,0,0,0,0,0h-.1s0,0,0,0h0s0,0,0,0h0c-.4,0-.8-.2-1-.4,0,0,0,0,0,0,0,0,0,0,0,0,0,0,0,0,0,0t0,0s0,0,0,0c0,0,0,0,0,0,0,0,0,0,0,0,0,0,0,0,0,0,0,0,0,0,0,0,0,0,0,0,0,0,0,0,0,0,0,0h0s0,0,0,0h0s0,0,0,0h0s0,0,0,0h0s0,0,0,0h0s0,0,0,0h0s0,0,0,0c0,0,0,0,0,0h0s0,0,0,0c0,0,0,0,0,0h0s0,0,0,0h0s0,0,0,0Z"/>
    <path class="cls-1" d="M5.9,3c-.1-.2-.1-.5-.1-.7s0-.5.1-.8c0,.7.3,1.2.8,1.6.1,0,.2.2.3.2.2.1.4.3.6.4.2.1.6.2,1,.5.1,0,.2.2.4.2,0,0,0,0,0,0,1.6,1.1,1.4,2.5,1.4,2.5,0,1.3-1.1,2.4-2.4,2.4s-.3,0-.5,0c-.4,0-.7-.2-1-.4-.1,0-.2-.2-.3-.2-.4-.4-.7-1-.7-1.7h0c0-.3,0-.6.2-.8,0-.2.2-.5.4-.7s.4-.4.6-.5c0,0,.1,0,.2-.1.1,0,.2-.1.3,0,0,0,.2,0,.2.2h0c0,0,0,.1,0,.1,0,0,0,.1-.2.1,0,0-.1,0-.2,0-.6.3-1,1-1,1.7s.7,1.8,1.7,1.9c0,0,.2,0,.2,0,.9,0,1.7-.6,1.9-1.5,0-.1,0-.3,0-.4h0c0-.2,0-.3,0-.4,0,0,0-.1,0-.2,0-.2-.1-.4-.2-.5,0,0,0-.1,0-.2-.2-.3-.4-.5-.7-.7-.2-.1-.4-.2-.7-.4h-.2c-.4-.3-.8-.5-.9-.5h0c-.1,0-.3-.1-.4-.2-.1,0-.2-.2-.3-.3-.2-.2-.4-.4-.5-.7Z"/>
    <path class="cls-1" d="M7.3,2.8c0-.4.3-.7.7-.7s.2,0,.2,0c0,0,0,0,0,0,0,0,0,0,0,0,0,0,0,0,0,0,0,0,0,0,0,0,0,0,0,0,0,0h0c0,0,0,0,0,0,0,0,0,0,0,0,0,0,0,0,0,0,0,0,0,0,0,.1,0,0,0,0,0,0,0,0,0,0,0,0h0s0,0,0,0h0v.2h0s0,0,0,0h0c0,0,0,0,0,0,0,0,0,0,0,0,0,0,0,0,0,.1,0,0,0,0,0,0,0,0,0,0,0,.1-.1.1-.3.2-.5.2s-.4,0-.5-.2c0,0,0,0,0,0,0,0,0,0,0,0,0,0,0,0,0,0,0,0,0,0,0,0,0,0,0-.2,0-.2Z"/>
    <polygon class="cls-1" points="11.8 1.4 12.6 3.1 12.4 2.8 11.7 1.4 11.8 1.4"/>
    <path class="cls-2" d="M7.5,7h0c0,0,0,.2,0,.2,0,0,0,0,0,0,0,0,0,0,0,0,0,0,0,0,0,0s0,0,0,0c0,0,.2.2.4.2s.3,0,.4-.2,0,0,0,0,0,0,0,0,0,0,0,0c0,0,0,0,0,0,0,0,0-.1,0-.2s0-.1,0-.2c0,0,0,0,0,0,0,0,0,0,0,0s0,0,0,0,0,0,0,0h0s0,0,0,0c0,0,0,0,0,0s0,0,0,0c0,0,0,0,0,0,0,0-.1,0-.2,0h0s0,0,0,0h0s0,0,0,0c0,0,0,0,0,0,0,0,0,0,0,0h0c0,0,0,0,0,0h0s0,0,0,0t0,0s0,0,0,0h0s0,0,0,0c0,0,0,0,0,0,0,0,0,0,0,0,0,0,0,0,0,0,0,0,0,0,0,0h0s0,0,0,0h0ZM7.1,7s0,0,0-.1h0s0,0,0,0c0,0,0,0,0,0s0,0,0,0c0,0,0,0,0,0,0,0,0,0,0,0,0,0,0,0,0,0,0,0,0,0,0,0,0,0,0,0,0,0,0,0,0,0,0,0h0c0,0,0,0,0,0h0s0,0,0,0c0,0,0,0,0,0,0,0,0,0,0,0,0,0,0,0,0,0,0,0,0,0,0,0,0,0,0,0,0,0,0,0,0,0,0,0h0s0,0,0,0c0,0,0,0,0,0h0s0,0,0,0,0,0,0,0,0,0,0,0h0c0,0,.1,0,.2,0,.3,0,.5.1.7.3,0,0,0,.1.1.2,0,0,0,0,0,0,0,0,0,0,0,0,0,0,0,0,0,0,0,0,0,0,0,0,0,0,0,0,0,0,0,0,0,0,0,0,0,0,0,0,0,0h0q0,0,0,0h0v.2h0s0,0,0,0h0c0,0,0,0,0,.1,0,0,0,0,0,0,0,0,0,0,0,0,0,0,0,0,0,0,0,0,0,0,0,0s0,0,0,0c0,0,0,0,0,0,0,0,0,.1-.1.2-.2.2-.4.3-.7.3-.5,0-1-.4-1-1h0Z"/>
    <polygon class="cls-1" points="6.6 11.4 4.8 11.1 4.6 10.9 6.3 11.1 8 12 9.7 11.1 11.5 10.8 12.4 9.2 13.7 7.8 13.4 6 13.7 4.1 14 4.4 13.7 6.3 14 8.1 12.6 9.4 11.8 11.1 10 11.4 8.3 12.3 6.6 11.4"/>
    <path class="cls-2" d="M10.6,8.5c-.3,0-.5.2-.5.5s.2.5.5.5.5-.2.5-.5-.2-.5-.5-.5ZM7.3,2.8c0,0,0,.2,0,.2,0,0,0,0,0,0,0,0,0,0,0,0,0,0,0,0,0,0,0,0,0,0,0,0,.1.1.3.2.5.2s.4,0,.5-.2c0,0,0,0,0-.1s0,0,0,0c0,0,0,0,0-.1,0,0,0,0,0,0,0,0,0,0,0,0h0s0,0,0,0h0v-.2h0s0,0,0,0h0s0,0,0,0c0,0,0,0,0,0,0,0,0,0,0-.1,0,0,0,0,0,0,0,0,0,0,0,0,0,0,0,0,0,0h0c0,0,0,0,0,0,0,0,0,0,0,0,0,0,0,0,0,0,0,0,0,0,0,0,0,0,0,0,0,0,0,0-.2,0-.2,0-.4,0-.7.3-.7.7ZM6.6,7.3s0,0,0,0,0,0,0,0h0s0,0,0,0h0s0,0,0,0c0,0,0,0,0,0h0s0,0,0,0c0,0,0,0,0,0h0s0,0,0,0h0s0,0,0,0h0s0,0,0,0h0s0,0,0,0h0s0,0,0,0h0s0,0,0,0c0,0,0,0,0,0,0,0,0,0,0,0,0,0,0,0,0,0,0,0,0,0,0,0,0,0,0,0,0,0,0,0,0,0,0,0t0,0s0,0,0,0c0,0,0,0,0,0,0,0,0,0,0,0,.3.3.6.4,1,.4h0s0,0,0,0h.2s0,0,0,0c0,0,0,0,0,0,.1,0,.2,0,.3-.1,0,0,0,0,0,0,0,0,0,0,.1,0,0,0,0,0,0,0,0,0,0,0,0,0h0s0,0,0,0c0,0,0,0,0,0s0,0,0,0c0,0,0,0,0,0,0,0,0,0,0,0s0,0,0,0c0,0,0,0,0,0,0,0,0-.1.1-.2,0,0,0,0,0,0,0,0,0,0,0,0h0c0,0,0-.1,0-.2,0,0,0,0,0,0,0,0,0,0,0,0h0c0,0,0-.1,0-.2h0v-.2s0,0,0,0h0c0-.1,0-.2,0-.2,0,0,0,0,0,0h0s0,0,0,0h0s0,0,0,0c0,0,0,0,0,0,0,0,0,0,0,0,0,0,0,0,0,0,0,0,0,0,0,0,0,0,0,0,0,0,0,0,0,0,0,0s0,0,0,0c0,0,0,0,0,0,0,0,0,0,0,0h0s0,0,0,0c0,0,0,0,0,0,0,0,0,0,0,0,0,0,0,0,0,0,0,0,0,0,0,0,0,0,0,0,0,0,0,0,0,0,0,0,0,0,0,0,0,0,0,0,0,0,0,0h0s0,0,0,0c0,0,0,0,0,0,0,0,0,0,0,0,0,0,0,0,0,0,0,0,0,0,0,0,0,0,0,0,0,0,0,0,0,0,0,0,0,0-.1,0-.2,0,0,0,0,0-.1,0,0,0,0,0-.1,0,0,0,0,0-.1,0,0,0,0,0-.1,0,0,0,0,0,0,0,0,0,0,0,0,0s0,0,0,0,0,0,0,0h0c0,0,0,0,0,0h0c0,0,0,0,0,.1s0,0,0,0c0,0,0,0,0,0s0,0,0,0c0,0,0,0,0,0,0,0,0,0-.1,0,0,0,0,0,0,0,0,0,0,0,0,0t0,0h0s0,0,0,0c0,0,0,0,0,0,0,0,0,0,0,0,0,0,0,0,0,0,0,0,0,0-.1,0,0,0,0,0,0,0,0,0,0,0,0,0-.2.1-.3.2-.4.4,0,0,0,0,0,0,0,0,0,0,0,0s0,0,0,0h0c0,0,0,0,0,0h0c0,0,0,.1,0,.1,0,0,0,0,0,0,0,0,0,0,0,0,0,0,0,0,0,0,0,0,0,0,0,.1,0,0,0,0,0,0s0,0,0,0h0c0,0,0,0,0,0h0c0,.1,0,.1,0,.2h0c0,0,0,.1,0,.1h0c0,0,0,0,0,0h0ZM5.7,2.3c0,.2,0,.5.1.7.1.2.3.5.5.7.1,0,.2.2.3.3.1,0,.2.1.4.2h0c0,0,.5.2.9.4,0,0,.2,0,.2.1h0c.2.1.4.2.7.4.3.2.5.4.7.7,0,0,0,.1,0,.2,0,.2.1.3.2.5,0,0,0,.1,0,.2,0,.1,0,.2,0,.4h0c0,.2,0,.3,0,.4-.2.9-1,1.5-1.9,1.5s-.2,0-.2,0c-.9-.1-1.7-.9-1.7-1.9s.4-1.4,1-1.7c0,0,.1,0,.2,0,0,0,.1,0,.2-.1,0,0,0,0,0-.1h0c0-.1,0-.2-.2-.2-.1,0-.2,0-.3,0,0,0-.1,0-.2.1-.2.1-.4.3-.6.5s-.3.4-.4.7c-.1.3-.1.5-.2.8h0c0,.7.3,1.3.7,1.7s.2.2.3.2c.3.2.6.4,1,.4.2,0,.3,0,.5,0,1.3,0,2.4-1.1,2.4-2.4,0,0,.2-1.4-1.4-2.5,0,0,0,0,0,0-.1,0-.3-.2-.4-.2-.4-.2-.7-.4-1-.5-.2-.1-.4-.2-.6-.4-.1,0-.2-.1-.3-.2-.4-.4-.8-1-.8-1.6,0,.2-.1.5-.1.8ZM5.2,8.9s0,0,0,0c0,0,0,0,0,0h.5s0,0,0,0,0,0,0,0,0,0,0,0,0,0,0,0h-.5s0,0,0,0c0,0,0,0,0,0s0,0,0,0,0,0,0,0ZM5.2,9.2s0,0,0,0c0,0,0,0,0,0,0,0,0,0,0,0,0,0,0,0,0,0,0,0,0,0,0,0h.9s0,0,0,0c0,0,0,0,0,0,0,0,0,0,0,0h0c0,0,0,0,0,0,0,0,0,0-.1,0h-.9s0,0,0,0ZM4.8,1.4l1.9-.3,1.7-.9,1.7.9,1.7.3.7,1.4.3.3,1.1,1.1-.3,1.9.3,1.8-1.3,1.3-.8,1.7-1.9.3-1.7.9-1.7-.9-1.7-.3-.7-1.4-.3-.3h0s-1.1-1.1-1.1-1.1l.3-1.8-.3-1.9,1.3-1.3.8-1.7Z"/>
    <polygon class="cls-2" points="3.9 9.4 4.6 10.9 4.5 10.8 3.6 9.2 3.9 9.4"/>
    <polygon class="cls-2" points="4.5 1.1 6.3 .9 8 0 9.7 .9 11.5 1.1 11.7 1.4 10 1.1 8.3 .3 6.6 1.1 4.8 1.4 3.9 3.1 2.6 4.4 2.9 6.3 2.6 8.1 2.3 7.8 2.6 6 2.3 4.1 3.6 2.8 4.5 1.1"/>
  </g>
  <g>
    <g class="cls-3">
      <polygon class="cls-1" points="4.3 12.1 4.3 16.3 8.3 15.3 12.3 16.3 12.3 12.1 10.3 12.4 8.3 13.4 6.3 12.4 4.3 12.1"/>
    </g>
    <polygon class="cls-2" points="4 11.8 4 16 8 15 12 16 12 11.8 10 12.1 8 13.1 6 12.1 4 11.8"/>
  </g>
</svg>